<svg width="39" height="41" viewBox="0 0 39 41" fill="none" xmlns="http://www.w3.org/2000/svg">
<path d="M19.0554 20.3304C16.743 22.2046 17.8285 24.8978 17.1693 28.654C16.2624 34.1211 18.7656 36.4202 21.0894 35.5258C23.4133 34.6313 23.3973 31.1032 25.614 29.6257C27.6954 28.0239 30.9876 29.1093 32.47 27.0785C34.02 25.1098 32.6442 21.9076 27.2972 21.1157C23.7358 20.6311 21.5131 18.7107 19.0554 20.3304Z" fill="#FFE55E"/>
<path d="M11.3963 22.7513C14.1416 23.8885 16.0236 26.1939 15.6087 27.8892C15.1387 29.6493 12.5412 30.1474 9.79593 29.0102C7.05068 27.873 5.16868 25.5676 5.58361 23.8723C6.05356 22.1121 8.6511 21.614 11.3963 22.7513Z" fill="#FFAA00"/>
<path d="M23.2831 14.0369C23.3333 16.9803 24.8499 19.3391 26.621 19.3965C28.392 19.4538 29.8463 17.1679 29.7962 14.2245C29.746 11.2811 28.2294 8.92224 26.4583 8.86493C24.6297 8.87546 23.1754 11.1614 23.2831 14.0369Z" fill="#FFAA00"/>
<path d="M13.5551 14.0874C15.8564 16.3209 16.6288 19.3072 15.3573 20.6559C14.0858 22.0046 11.1704 21.2442 8.86914 19.0106C6.56786 16.7771 5.79545 13.7907 7.06694 12.4421C8.33843 11.0934 11.2538 11.8538 13.5551 14.0874Z" fill="#FFAA00"/>
<path d="M14.7696 13.0689C16.0715 15.7809 18.4301 17.2475 20.0094 16.4821C21.6442 15.6511 21.9144 12.867 20.6778 10.215C19.3759 7.50298 17.0172 6.03635 15.438 6.80176C13.7934 7.50717 13.4676 10.3569 14.7696 13.0689Z" fill="#FFAA00"/>
</svg>
