<svg width="66" height="68" viewBox="0 0 66 68" fill="none" xmlns="http://www.w3.org/2000/svg">
<path d="M32.1779 33.8841C28.3238 37.0077 30.1329 41.4964 29.0344 47.7567C27.5227 56.8685 31.6947 60.7005 35.5678 59.2097C39.4409 57.7189 39.4143 51.8387 43.1088 49.3762C46.5777 46.7065 52.0648 48.5156 54.5354 45.1309C57.1188 41.8497 54.8257 36.5127 45.914 35.1929C39.9784 34.3853 36.2739 31.1847 32.1779 33.8841Z" fill="#FFE55E"/>
<path d="M19.4126 37.9188C23.988 39.8142 27.1247 43.6566 26.4332 46.4821C25.6499 49.4156 21.3207 50.2458 16.7453 48.3504C12.1698 46.455 9.03316 42.6127 9.72473 39.7872C10.508 36.8536 14.8372 36.0235 19.4126 37.9188Z" fill="#FFAA00"/>
<path d="M39.224 23.395C39.3076 28.3006 41.8353 32.232 44.7871 32.3275C47.7388 32.423 50.1627 28.6132 50.0791 23.7075C49.9955 18.8018 47.4678 14.8705 44.516 14.775C41.4683 14.7925 39.0445 18.6024 39.224 23.395Z" fill="#FFAA00"/>
<path d="M23.0111 23.479C26.8466 27.2015 28.1339 32.1787 26.0148 34.4265C23.8956 36.6744 19.0366 35.407 15.2012 31.6844C11.3657 27.9618 10.0784 22.9846 12.1975 20.7368C14.3167 18.489 19.1756 19.7564 23.0111 23.479Z" fill="#FFAA00"/>
<path d="M25.0345 21.7816C27.2044 26.3016 31.1354 28.746 33.7675 27.4703C36.4923 26.0854 36.9426 21.4451 34.8816 17.0251C32.7117 12.5051 28.7806 10.0607 26.1485 11.3364C23.4076 12.5121 22.8646 17.2616 25.0345 21.7816Z" fill="#FFAA00"/>
</svg>
