<svg width="19" height="18" viewBox="0 0 19 18" fill="none" xmlns="http://www.w3.org/2000/svg">
<path d="M9.24269 8.7168C7.05269 8.7168 5.64269 10.3768 4.77269 11.6268C3.94269 12.8168 3.13269 14.0968 3.13269 15.4468C3.13269 16.3468 3.37269 16.9968 3.88269 17.4368C4.71269 18.1768 5.88269 18.0368 7.22269 17.8768C8.51269 17.7168 9.96269 17.7168 11.2527 17.8768C11.8027 17.9468 12.3227 18.0068 12.8027 18.0068C13.4927 18.0068 14.1027 17.8768 14.5927 17.4368C15.0927 16.9868 15.3427 16.3368 15.3427 15.4468C15.3427 14.0268 14.4327 12.7168 13.7027 11.6668C12.7527 10.2968 11.3827 8.7168 9.24269 8.7168ZM13.2727 15.9468C13.0727 16.0868 12.1227 15.9768 11.4927 15.8968C10.8227 15.8168 10.0627 15.7268 9.23269 15.7268C8.40269 15.7268 7.65269 15.8168 6.97269 15.8968C6.34269 15.9768 5.40269 16.0868 5.20269 15.9568C5.20269 15.9568 5.12269 15.8468 5.12269 15.4568C5.12269 14.6868 5.78269 13.6668 6.40269 12.7768C7.40269 11.3368 8.24269 10.7268 9.22269 10.7268C10.1827 10.7268 11.0227 11.3568 12.0427 12.8268C12.6127 13.6468 13.3227 14.6668 13.3227 15.4568C13.3427 15.8268 13.2727 15.9468 13.2727 15.9468Z" fill="#9ED6E7" fill-opacity="0.5"/>
<path d="M14.0027 10.3468C14.3927 10.5268 14.9227 10.6768 15.4727 10.6768C15.9427 10.6768 16.4427 10.5768 16.8827 10.3068C17.4227 9.98684 18.0827 9.32684 18.1627 7.97684C18.1927 7.54684 18.2527 7.11684 18.3227 6.71684C18.5127 5.47684 18.7627 3.93684 17.4327 3.30684C16.6427 2.93684 15.6627 3.16684 14.6527 3.95684C13.8927 4.55684 13.2027 5.41684 12.8027 6.25684C12.3627 7.17684 12.2727 8.02684 12.5127 8.76684C12.7527 9.44684 13.2627 9.99684 14.0027 10.3468ZM14.6227 7.11684C15.1127 6.06684 16.0927 5.27684 16.4827 5.13684C16.5027 5.42684 16.4127 6.00684 16.3427 6.40684C16.2727 6.84684 16.1927 7.35684 16.1627 7.85684C16.1427 8.23684 16.0427 8.48684 15.8627 8.58684C15.6127 8.73684 15.1527 8.68684 14.8527 8.53684C14.6127 8.42684 14.4727 8.28684 14.4227 8.13684C14.3427 7.90684 14.4127 7.54684 14.6227 7.11684Z" fill="#9ED6E7" fill-opacity="0.5"/>
<path d="M0.322604 7.97684C0.402604 9.32684 1.0626 9.98684 1.6026 10.3068C2.0526 10.5768 2.5426 10.6768 3.0126 10.6768C3.5626 10.6768 4.0926 10.5368 4.4826 10.3468C5.2226 9.99684 5.7326 9.44684 5.9626 8.76684C6.2126 8.02684 6.1126 7.18684 5.6726 6.25684C5.2726 5.40684 4.5826 4.54684 3.8226 3.95684C2.8226 3.16684 1.8326 2.93684 1.0426 3.30684C-0.287397 3.93684 -0.0373959 5.47684 0.152604 6.71684C0.222604 7.11684 0.292604 7.54684 0.322604 7.97684ZM3.86261 7.11684C4.0626 7.54684 4.1326 7.90684 4.0626 8.13684C4.0126 8.29684 3.8626 8.42684 3.6326 8.53684C3.3326 8.67684 2.8726 8.73684 2.6226 8.58684C2.4426 8.48684 2.3426 8.23684 2.3226 7.85684C2.2926 7.34684 2.2126 6.84684 2.1426 6.40684C2.0826 6.01684 1.9926 5.47684 2.0026 5.16684C2.4526 5.32684 3.39261 6.10684 3.86261 7.11684Z" fill="#9ED6E7" fill-opacity="0.5"/>
<path d="M8.90267 7.80702C8.98267 7.81702 9.07268 7.81702 9.17268 7.81702C9.95268 7.81702 10.9627 7.54702 11.5927 6.75702C11.9827 6.26702 12.3727 5.41702 11.9727 4.12702C11.8527 3.71702 11.7627 3.28702 11.6827 2.88702C11.4327 1.65702 11.1227 0.127017 9.66267 0.00701685C7.88267 -0.152983 6.52268 2.45702 6.36268 4.38702C6.16268 6.73702 7.54267 7.69702 8.90267 7.80702ZM8.35268 4.56702C8.45268 3.41702 9.09267 2.32702 9.41267 2.06702C9.53267 2.33702 9.64267 2.90702 9.72267 3.29702C9.81267 3.73702 9.91267 4.23702 10.0627 4.71702C10.1727 5.07702 10.1627 5.34702 10.0327 5.50702C9.84268 5.73702 9.38267 5.84702 9.07267 5.81702C8.75267 5.78702 8.25268 5.74702 8.35268 4.56702Z" fill="#9ED6E7" fill-opacity="0.5"/>
</svg>
