<svg width="1476" height="695" viewBox="0 0 1476 695" fill="none" xmlns="http://www.w3.org/2000/svg">
<path d="M2.79744 61.4452C-16.0029 23.1839 61.5202 10.7817 188.34 10.6818C193.536 4.10346 196.47 0 196.47 0L192.928 10.6835C478.617 11.1154 1007.09 72.0254 1255.41 42.6681C1616.33 0 1369.29 490.953 1452.02 471.602C1534.74 452.25 1397.87 713.495 1127.81 693.955C857.757 674.415 412.915 409.054 412.915 486.857C412.915 564.66 2.79744 584.11 2.79744 584.11L192.928 10.6835C191.391 10.6812 189.862 10.6806 188.34 10.6818C158.594 48.341 54.7168 167.108 2.79744 61.4452Z" fill="#FFF2B3" fill-opacity="0.34"/>
</svg>
