<svg width="89" height="89" viewBox="0 0 89 89" fill="none" xmlns="http://www.w3.org/2000/svg">
<path d="M2.04981 55.5804C4.91251 66.3737 11.6142 75.4889 21.0169 81.4113C21.4646 81.6934 21.9123 81.9754 22.3795 82.2265C43.2476 94.3574 70.1045 87.2567 82.2318 66.394C88.1087 56.2761 89.7054 44.4972 86.6975 33.1812C83.7204 21.8846 76.5093 12.4485 66.3929 6.52929C45.5249 -5.60158 18.6679 1.49908 6.53092 22.3773C0.638566 32.4854 -0.942669 44.2741 2.04981 55.5804ZM62.2797 80.3015C60.9391 72.3641 62.3783 64.2588 66.4577 57.2344C70.5371 50.2101 76.8947 44.944 84.4565 42.1828C84.9118 49.9507 83.0735 57.6967 79.0816 64.5822C74.9867 71.5968 69.066 76.9225 62.2797 80.3015ZM64.5565 9.68446C64.9831 9.9316 65.3846 10.1844 65.8014 10.447C74.4167 15.8735 80.562 24.2286 83.1937 34.1219C83.5853 35.5543 83.8609 36.9999 84.0707 38.4471C75.3246 41.411 67.9822 47.3504 63.3115 55.3821C58.6407 63.4138 57.1065 72.7312 58.8456 81.782C47.8749 86.0181 35.1432 85.4151 24.2005 79.0616C14.939 73.7024 8.31913 65.0053 5.56906 54.6494C5.17742 53.2169 4.90186 51.7714 4.69207 50.3241C13.4382 47.3602 20.7805 41.4209 25.4513 33.3892C30.1221 25.3575 31.6563 16.04 29.9172 6.98925C40.8976 2.73776 53.6139 3.33098 64.5565 9.68446ZM26.4831 8.46976C27.8237 16.4072 26.3845 24.5124 22.305 31.5368C18.2256 38.5612 11.868 43.8272 4.30626 46.5885C3.85091 38.8206 5.68926 31.0745 9.68117 24.1891C13.776 17.1744 19.6967 11.8488 26.4831 8.46976Z" fill="#9ED6E7" fill-opacity="0.5"/>
</svg>
