<svg width="76" height="76" viewBox="0 0 76 76" fill="none" xmlns="http://www.w3.org/2000/svg">
<path d="M1.50904 47.4839C3.96795 56.7548 9.72433 64.5843 17.8008 69.6714C18.1853 69.9136 18.5699 70.1558 18.9712 70.3716C36.8958 80.7914 59.9646 74.6923 70.3813 56.7722C75.4293 48.0815 76.8007 37.964 74.2171 28.2441C71.6599 18.5409 65.4659 10.4358 56.7765 5.35151C38.8519 -5.06829 15.7832 1.03082 5.35808 18.9641C0.29685 27.6465 -1.06135 37.7724 1.50904 47.4839ZM53.2434 68.7181C52.0919 61.9002 53.3281 54.9382 56.8321 48.9046C60.3361 42.8711 65.797 38.3478 72.2922 35.976C72.6833 42.6482 71.1042 49.3017 67.6754 55.216C64.1581 61.2412 59.0725 65.8157 53.2434 68.7181ZM55.1991 8.06164C55.5655 8.27391 55.9103 8.4911 56.2684 8.71664C63.6685 13.3777 68.947 20.5543 71.2075 29.0521C71.5439 30.2825 71.7806 31.5242 71.9608 32.7673C64.4483 35.3131 58.1416 40.4147 54.1297 47.3136C50.1177 54.2124 48.7999 62.2156 50.2937 69.9897C40.8704 73.6283 29.9345 73.1104 20.5353 67.6531C12.5802 63.0498 6.89406 55.5794 4.53189 46.6842C4.19549 45.4538 3.9588 44.2121 3.7786 42.969C11.2911 40.4232 17.5978 35.3216 21.6097 28.4228C25.6217 21.524 26.9395 13.5208 25.4457 5.74659C34.8773 2.09478 45.7999 2.60432 55.1991 8.06164ZM22.496 7.01827C23.6475 13.8361 22.4113 20.7981 18.9072 26.8317C15.4032 32.8653 9.9424 37.3885 3.44721 39.7603C3.05609 33.0881 4.63514 26.4346 8.06399 20.5204C11.5813 14.4951 16.6668 9.92067 22.496 7.01827Z" fill="#9ED6E7" fill-opacity="0.5"/>
</svg>
